HIERARCHY
ROOT Hips
{
	OFFSET 0.00000 0.00000 0.00000
	CHANNELS 6 Xposition Yposition Zposition Zrotation Yrotation Xrotation 
	JOINT LHipJoint
	{
		OFFSET 0 0 0
		CHANNELS 3 Zrotation Yrotation Xrotation
		JOINT LeftHip
		{
			OFFSET 1.55766 -1.60504 1.11378
			CHANNELS 3 Zrotation Yrotation Xrotation
			JOINT LeftKnee
			{
				OFFSET 2.29047 -6.29302 0.00000
				CHANNELS 3 Zrotation Yrotation Xrotation
				JOINT LeftAnkle
				{
					OFFSET 2.52265 -6.93093 0.00000
					CHANNELS 3 Zrotation Yrotation Xrotation
					JOINT LeftToe
					{
						OFFSET 0.17633 -0.48446 2.02656
						CHANNELS 3 Zrotation Yrotation Xrotation
						End Site
						{
							OFFSET 0.00000 -0.00000 1.04989
						}
					}
				}
			}
		}
	}
	JOINT RHipJoint
	{
		OFFSET 0 0 0
		CHANNELS 3 Zrotation Yrotation Xrotation
		JOINT RightHip
		{
			OFFSET -1.48599 -1.60504 1.11378
			CHANNELS 3 Zrotation Yrotation Xrotation
			JOINT RightKnee
			{
				OFFSET -2.27280 -6.24448 0.00000
				CHANNELS 3 Zrotation Yrotation Xrotation
				JOINT RightAnkle
				{
					OFFSET -2.50834 -6.89161 0.00000
					CHANNELS 3 Zrotation Yrotation Xrotation
					JOINT RightToe
					{
						OFFSET -0.26967 -0.74090 2.08741
						CHANNELS 3 Zrotation Yrotation Xrotation
						End Site
						{
							OFFSET -0.00000 -0.00000 1.10614
						}
					}
				}
			}
		}
	}
	JOINT lowerback
	{
		OFFSET 0 0 0
		CHANNELS 3 Zrotation Yrotation Xrotation
		JOINT Chest
		{
			OFFSET 0.06481 2.02437 -0.08472
			CHANNELS 3 Zrotation Yrotation Xrotation
			JOINT Chest2
			{
				OFFSET 0.00015 1.96711 0.18069
				CHANNELS 3 Zrotation Yrotation Xrotation
				JOINT lowerneck
				{
					OFFSET 0 0 0
					CHANNELS 3 Zrotation Yrotation Xrotation
					JOINT Neck
					{
						OFFSET -0.29961 1.68293 -0.13041
						CHANNELS 3 Zrotation Yrotation Xrotation
						JOINT Head
						{
							OFFSET 0.59697 1.61501 -0.14669
							CHANNELS 3 Zrotation Yrotation Xrotation
							End Site
							{
								OFFSET 0.22973 1.74906 -0.10148
							}
						}
					}
				}
				JOINT LeftCollar
				{
					OFFSET 0 0 0
					CHANNELS 3 Zrotation Yrotation Xrotation
					JOINT LeftShoulder
					{
						OFFSET 3.37968 1.02893 0.31147
CHANNELS 3 Zrotation Xrotation Yrotation
						JOINT LeftElbow
						{
OFFSET 0 -5.198070 -0.000000
CHANNELS 3 Zrotation Xrotation Yrotation
							JOINT LeftWrist
							{
OFFSET 0 -3.093700 -0.000000
CHANNELS 3 Zrotation Xrotation Yrotation
								JOINT lhand
								{
									OFFSET 0 0 0
CHANNELS 3 Zrotation Xrotation Yrotation
									JOINT LFingers
									{
OFFSET 0 -0.672630 -0.000000
CHANNELS 3 Zrotation Xrotation Yrotation
										End Site
										{
OFFSET 0 -0.542290 -0.000000
										}
									}
								}
								JOINT LThumb
								{
OFFSET 0 0.000000 0.000000
CHANNELS 3 Zrotation Xrotation Yrotation
									End Site
									{
OFFSET 0 -0.550570 0.550570
									}
								}
							}
						}
					}
				}
				JOINT RightCollar
				{
					OFFSET 0 0 0
					CHANNELS 3 Zrotation Yrotation Xrotation
					JOINT RightShoulder
					{
						OFFSET -3.38254 0.96355 -0.16120
CHANNELS 3 Zrotation Xrotation Yrotation
						JOINT RightElbow
						{
OFFSET 0 -5.452220 -0.000000
CHANNELS 3 Zrotation Xrotation Yrotation
							JOINT RightWrist
							{
OFFSET 0 -3.012840 -0.000000
CHANNELS 3 Zrotation Xrotation Yrotation
								JOINT rhand
								{
									OFFSET 0 0 0
CHANNELS 3 Zrotation Xrotation Yrotation
									JOINT RFingers
									{
OFFSET 0 -0.622300 -0.000000
CHANNELS 3 Zrotation Xrotation Yrotation
										End Site
										{
OFFSET 0 -0.501710 -0.000000
										}
									}
								}
								JOINT RThumb
								{
OFFSET 0 0.000000 0.000000
CHANNELS 3 Zrotation Xrotation Yrotation
									End Site
									{
OFFSET 0 -0.509370 0.509370
									}
								}
							}
						}
					}
				}
			}
		}
	}
}
MOTION
Frames: 5
Frame Time: 0.008333333333333333
-5.692700 16.348200 35.103100 -138.662000 -82.416100 151.786000 0.000000 0.000000 0.000000 -15.744000 0.196700 -17.608200 0.701600 5.354100 14.921300 0.315400 -9.271200 -11.129400 0.814300 -5.758300 -16.084600 0.000000 0.000000 0.000000 0.000000 0.000000 0.000000 0.000000 0.000000 0.000000 -0.000000 -0.000000 0.000000 -0.000000 -0.000000 0.000000 3.539700 2.966300 -14.760600 -0.447300 3.129300 -5.954200 -1.952700 1.377000 2.184100 -30.161500 -8.460100 18.957400 45.215600 -19.769300 -6.642100 24.272200 -13.194700 3.888300 0.000000 0.000000 0.000000 5.728300 11.093100 -37.695700 18.731100 -29.083200 4.899500 -13.524400 -48.534900 5.710100 0.000000 0.000000 0.000000 -7.125000 0.000000 0.000000 -28.694100 23.835300 -16.792700 0.000000 0.000000 0.000000 -0.688500 4.873300 46.229600 -15.447100 -24.765200 -3.411000 -5.767800 20.576100 -6.019600 0.000000 0.000000 0.000000 7.125000 0.000000 -0.000000 15.408800 23.940800 8.116000
-5.693354 16.348735 35.103397 -138.720244 -82.425550 151.843649 0.000000 0.000000 0.000000 -15.754341 0.171322 -17.582466 0.699579 5.346433 14.899429 0.314746 -9.259314 -11.117157 0.805682 -5.728346 -15.998185 0.000000 0.000000 0.000000 0.000000 0.000000 0.000000 0.000000 0.000000 0.000000 0.000000 0.000000 0.000000 0.000000 0.000000 0.000000 3.555093 2.961070 -14.758342 -0.462218 3.120504 -5.963887 -1.978850 1.371770 2.173699 -30.174278 -8.441735 18.960372 45.213995 -19.753610 -6.618149 24.284562 -13.187449 3.888062 0.000000 0.000000 0.000000 5.741910 11.133752 -37.787226 18.781023 -29.145663 4.923808 -13.189677 -48.587795 5.667012 0.000000 0.000000 0.000000 -7.125000 0.000000 0.000000 -28.491020 23.893187 -16.593007 0.000000 0.000000 0.000000 -0.701813 4.900698 46.355656 -15.468436 -24.794619 -3.419974 -5.791751 20.475006 -5.949886 0.000000 0.000000 0.000000 7.125000 0.000000 0.000000 15.399231 24.008137 8.085689
-5.693951 16.349119 35.103279 -138.750945 -82.428133 151.872813 0.000000 0.000000 0.000000 -15.757155 0.162451 -17.566258 0.698370 5.341860 14.886330 0.314130 -9.257746 -11.108989 0.797989 -5.701599 -15.921052 0.000000 0.000000 0.000000 0.000000 0.000000 0.000000 0.000000 0.000000 0.000000 0.000000 0.000000 0.000000 0.000000 0.000000 0.000000 3.561299 2.954557 -14.759309 -0.464854 3.110878 -5.967821 -1.986834 1.366634 2.169920 -30.191602 -8.427219 18.956363 45.207976 -19.738806 -6.600366 24.291717 -13.178821 3.887806 0.000000 0.000000 0.000000 5.743069 11.171234 -37.899371 18.793217 -29.160889 4.929741 -12.888552 -48.544272 5.897519 0.000000 0.000000 0.000000 -7.125000 0.000000 0.000000 -28.247946 23.701757 -16.551213 0.000000 0.000000 0.000000 -0.715824 4.914665 46.429777 -15.478265 -24.808173 -3.424119 -5.795649 20.427053 -5.933427 0.000000 0.000000 0.000000 7.125000 0.000000 0.000000 15.398246 24.024048 8.079262
-5.694426 16.349178 35.102269 -138.722417 -82.415949 151.840720 0.000000 0.000000 0.000000 -15.743783 0.189077 -17.570537 0.698905 5.343940 14.892095 0.313595 -9.278369 -11.109583 0.792283 -5.681749 -15.863878 0.000000 0.000000 0.000000 0.000000 0.000000 0.000000 0.000000 0.000000 0.000000 0.000000 0.000000 0.000000 0.000000 0.000000 0.000000 3.547748 2.945286 -14.767214 -0.441081 3.099467 -5.959382 -1.955751 1.361701 2.180380 -30.218704 -8.420979 18.937345 45.192464 -19.725910 -6.595849 24.287676 -13.167232 3.887509 0.000000 0.000000 0.000000 5.717454 11.201901 -38.055856 18.724275 -29.074534 4.896162 -12.659678 -48.293408 6.716378 0.000000 0.000000 0.000000 -7.125000 0.000000 0.000000 -27.918869 22.974186 -16.848969 0.000000 0.000000 0.000000 -0.731336 4.899747 46.392216 -15.463347 -24.787609 -3.417879 -5.756424 20.493380 -6.031490 0.000000 0.000000 0.000000 7.125000 0.000000 0.000000 15.415719 23.929373 8.124193
-5.694751 16.349087 35.102013 -138.659556 -82.412556 151.779952 0.000000 0.000000 0.000000 -15.734448 0.196046 -17.575345 0.698949 5.344059 14.892427 0.313211 -9.286051 -11.107763 0.791558 -5.679292 -15.856734 0.000000 0.000000 0.000000 0.000000 0.000000 0.000000 0.000000 0.000000 0.000000 0.000000 0.000000 0.000000 0.000000 0.000000 0.000000 3.567966 2.957218 -14.754405 -0.455113 3.113297 -5.969053 -1.980168 1.367748 2.166014 -30.197360 -8.423718 18.943832 45.190875 -19.724143 -6.599218 24.280314 -13.166622 3.880533 0.000000 0.000000 0.000000 5.744735 11.210874 -38.064329 18.728831 -29.080277 4.898350 -12.700796 -48.388146 6.702132 0.000000 0.000000 0.000000 -7.125000 0.000000 0.000000 -27.947317 22.985133 -16.864848 0.000000 0.000000 0.000000 -0.699497 4.911920 46.345034 -15.459485 -24.782288 -3.416241 -5.760852 20.519147 -6.034287 0.000000 0.000000 0.000000 7.125000 0.000000 0.000000 15.412215 23.926606 8.123207
